<svg xmlns="http://www.w3.org/2000/svg" xmlns:xlink="http://www.w3.org/1999/xlink" width="50" height="50" viewBox="0 0 50 50">
  <defs>
    <linearGradient id="linear-gradient" y1="0.5" x2="1" y2="0.5" gradientUnits="objectBoundingBox">
      <stop offset="0" stop-color="#ee2c72"/>
      <stop offset="1" stop-color="#6d2c88"/>
    </linearGradient>
  </defs>
  <g id="slug4" transform="translate(-143 -3771)">
    <circle id="Ellipse_1110" data-name="Ellipse 1110" cx="25" cy="25" r="25" transform="translate(143 3771)" fill="url(#linear-gradient)"/>
    <path id="Union_9" data-name="Union 9" d="M-237.551-4230H-251.5a.709.709,0,0,1-.679-.505l-.7-2.328h-6.415a.709.709,0,0,1-.709-.708.709.709,0,0,1,.709-.709h1.079a15.182,15.182,0,0,1,2.283-7.341,15.279,15.279,0,0,1,5.394-5.184c-.091-.239-.176-.506-.258-.805h-1.461a2.411,2.411,0,0,1-2.409-2.409v-2.232a2.412,2.412,0,0,1,2.409-2.41H-252a7.809,7.809,0,0,1,.2-2.634,9.5,9.5,0,0,1,3.371-4.962A8.994,8.994,0,0,1-243-4264a8.994,8.994,0,0,1,5.437,1.772,9.5,9.5,0,0,1,3.371,4.962,7.783,7.783,0,0,1,.195,2.633h.252a2.413,2.413,0,0,1,2.41,2.411v2.232a2.412,2.412,0,0,1-2.41,2.409h-1.461c-.082.3-.166.566-.258.805a15.274,15.274,0,0,1,5.394,5.183,15.182,15.182,0,0,1,2.283,7.342h1.079a.709.709,0,0,1,.709.709.709.709,0,0,1-.709.708h-6.415l-.7,2.328a.709.709,0,0,1-.679.505Zm.711-3.386a.709.709,0,0,1,.5.868l-.3,1.1h1.607l.7-2.333s0,0,0,0l1-3.33h-16.318l.295,1.1a.708.708,0,0,1-.5.868.709.709,0,0,1-.184.024.71.71,0,0,1-.684-.525l-.393-1.468h-1.562l1,3.327,0,.01.7,2.329H-238.1l.393-1.467a.71.71,0,0,1,.684-.525A.7.7,0,0,1-236.84-4233.386Zm4.465-5.115a.706.706,0,0,1,.568.286.71.71,0,0,1,.111.626l-1,3.338h3.492a13.753,13.753,0,0,0-6.948-11.288,6.9,6.9,0,0,1-1.748,1.393c-.262.166-.558.354-.88.573l-.044.027a8.313,8.313,0,0,1-4.175,1.191,8.318,8.318,0,0,1-4.174-1.19l-.044-.027-.126-.085-.656.337a11.087,11.087,0,0,0-1.793,1.148.7.7,0,0,1-.438.152.706.706,0,0,1-.557-.271.708.708,0,0,1,.118-.994,12.408,12.408,0,0,1,1.957-1.263,5.2,5.2,0,0,1-1.137-.992,13.757,13.757,0,0,0-6.947,11.288h3.493l-1-3.338a.706.706,0,0,1,.11-.626.708.708,0,0,1,.569-.286Zm-18.063-14.808c.116.812.266,1.595.385,2.217.067.349.125.65.166.895.109.667.212,1.217.316,1.679a.709.709,0,0,1,.032.144,3.8,3.8,0,0,0,2.2,3.034c.264.168.562.358.894.583a6.9,6.9,0,0,0,3.444.988,6.894,6.894,0,0,0,3.445-.989c.332-.225.63-.414.894-.583a5.4,5.4,0,0,0,1.407-1.1,11.136,11.136,0,0,1-4.586.99,9.957,9.957,0,0,1-1.23-.075h0l-.014,0-.023,0-.041-.008-.029-.008a.212.212,0,0,1-.039-.011.247.247,0,0,1-.03-.011l-.034-.014-.033-.015-.028-.015-.033-.021-.025-.016-.03-.023a.147.147,0,0,1-.024-.019.148.148,0,0,1-.027-.024l-.023-.022-.024-.025c-.007-.009-.015-.017-.022-.026s-.014-.017-.02-.025l-.021-.03c-.005-.008-.01-.019-.015-.027l-.019-.033-.013-.027c-.005-.012-.011-.023-.015-.035a.19.19,0,0,1-.011-.031c0-.011-.008-.022-.012-.033s-.006-.024-.009-.036-.005-.021-.007-.031,0-.027-.006-.041,0-.019,0-.029,0-.028,0-.043,0-.014,0-.021v-.568a.708.708,0,0,1,.708-.708h1.275a.707.707,0,0,1,.7.6,8.215,8.215,0,0,0,4.629-1.754c.093-.432.186-.938.284-1.538.041-.244.1-.545.166-.894.148-.775.345-1.8.462-2.817,0,0,0-.01,0-.016a.727.727,0,0,1,.021-.168,7.706,7.706,0,0,0-.084-2.768,7.629,7.629,0,0,0-7.451-5.724,7.629,7.629,0,0,0-7.451,5.724,6.44,6.44,0,0,0-.138,2.141c1.407-.2,4.55-.739,6.083-1.739a.709.709,0,0,1,.6-.083.707.707,0,0,1,.445.4l.77,1.846c.051.122.093.228.129.323l.157-.053.352-.12a10.831,10.831,0,0,0,2.071-1.106.708.708,0,0,1,.981.2.709.709,0,0,1-.2.982,12.092,12.092,0,0,1-2.411,1.271l-.338.115a2.863,2.863,0,0,1-.87.213.981.981,0,0,1-.313-.052c-.443-.149-.59-.526-.747-.924-.035-.087-.074-.187-.122-.3l-.465-1.116A22.945,22.945,0,0,1-250.438-4253.309Zm15.881,2.485c-.065.338-.121.63-.158.857-.057.348-.114.67-.171.97h1.141a.994.994,0,0,0,.992-.993v-2.232a.994.994,0,0,0-.992-.993h-.4C-234.263-4252.354-234.423-4251.522-234.557-4250.824Zm-18.691-1.4v2.232a.994.994,0,0,0,.992.993h1.141c-.057-.3-.114-.622-.171-.97-.037-.227-.094-.52-.158-.858-.134-.7-.294-1.53-.412-2.39h-.4A.994.994,0,0,0-253.247-4252.222Zm3.189,19.069-.083-.308a.708.708,0,0,1,.5-.868.708.708,0,0,1,.868.5l.083.308a.708.708,0,0,1-.5.868.712.712,0,0,1-.185.025A.709.709,0,0,1-250.058-4233.153Zm13.428-1.019a.707.707,0,0,1-.5-.868l.083-.308a.708.708,0,0,1,.868-.5.708.708,0,0,1,.5.868l-.083.308a.708.708,0,0,1-.684.525A.71.71,0,0,1-236.63-4234.172Zm-16-6.03a.71.71,0,0,1-.12-1c.093-.119.189-.237.287-.352a.709.709,0,0,1,1-.084.709.709,0,0,1,.084,1c-.086.1-.172.207-.255.312a.7.7,0,0,1-.558.271A.71.71,0,0,1-252.632-4240.2Zm14.234-15.312a.707.707,0,0,1-.067-1c.068-.079.129-.156.182-.229a.709.709,0,0,1,.989-.16.708.708,0,0,1,.161.988c-.078.109-.167.221-.265.333a.708.708,0,0,1-.534.242A.7.7,0,0,1-238.4-4255.515Z" transform="translate(411 8043)" fill="#fff"/>
  </g>
</svg>
