<svg xmlns="http://www.w3.org/2000/svg" xmlns:xlink="http://www.w3.org/1999/xlink" width="50" height="50" viewBox="0 0 50 50">
  <defs>
    <linearGradient id="linear-gradient" y1="0.5" x2="1" y2="0.5" gradientUnits="objectBoundingBox">
      <stop offset="0" stop-color="#ee2c72"/>
      <stop offset="1" stop-color="#6d2c88"/>
    </linearGradient>
  </defs>
  <g id="slug2" transform="translate(-427 -3771)">
    <circle id="Ellipse_1109" data-name="Ellipse 1109" cx="25" cy="25" r="25" transform="translate(427 3771)" fill="url(#linear-gradient)"/>
    <path id="Union_8" data-name="Union 8" d="M-826.745-4231.393a.664.664,0,0,1-.347-.873.665.665,0,0,1,.873-.346,15.6,15.6,0,0,0,17.3-3.309,15.746,15.746,0,0,0,1.862-19.917l-1.119,1.118a.665.665,0,0,1-.469.2.677.677,0,0,1-.254-.051.666.666,0,0,1-.41-.613v-3.3a.664.664,0,0,1,.664-.664h3.3a.666.666,0,0,1,.614.411.667.667,0,0,1-.144.724l-1.226,1.225a16.993,16.993,0,0,1,3.064,10.952,16.986,16.986,0,0,1-4.94,10.858,16.9,16.9,0,0,1-8.957,4.7,17.209,17.209,0,0,1-3.078.279A16.948,16.948,0,0,1-826.745-4231.393Zm18.764-25.4,1.032-1.031h-1.032Zm-20.839,24.328-.026-.016a.663.663,0,0,1-.221-.912.662.662,0,0,1,.912-.222l.026.015a.663.663,0,0,1,.221.913.66.66,0,0,1-.568.319A.662.662,0,0,1-828.82-4232.464Zm8.033-2.44-9.668-5.356a1.619,1.619,0,0,1-.835-1.417v-10.645a1.622,1.622,0,0,1,.835-1.418l9.668-5.355a1.611,1.611,0,0,1,1.572,0l9.668,5.355a1.622,1.622,0,0,1,.835,1.418v10.645a1.619,1.619,0,0,1-.835,1.417l-9.668,5.356a1.616,1.616,0,0,1-.786.2A1.613,1.613,0,0,1-820.786-4234.9Zm1.45-11.561v10.111l9.146-5.066a.3.3,0,0,0,.151-.257v-9.938Zm-10.625,4.788a.3.3,0,0,0,.152.257l9.145,5.066v-10.116l-4.979-2.83h0l-4.315-2.454Zm6-8.191,3.961,2.25,9.38-5.2-4.012-2.222Zm3.814-8.065-9.118,5.051,3.952,2.246,9.31-5.158-3.861-2.139a.294.294,0,0,0-.142-.037A.294.294,0,0,0-820.142-4257.934Zm-14.512,23.084a.664.664,0,0,1-.613-.41.666.666,0,0,1,.144-.724l1.225-1.225a16.992,16.992,0,0,1-3.063-10.952,16.986,16.986,0,0,1,4.94-10.859,16.892,16.892,0,0,1,8.938-4.7,16.979,16.979,0,0,1,9.789,1.093.664.664,0,0,1,.349.872.664.664,0,0,1-.872.348,15.6,15.6,0,0,0-17.265,3.323,15.749,15.749,0,0,0-1.862,19.919l1.119-1.119a.665.665,0,0,1,.724-.144.664.664,0,0,1,.41.613v3.3a.664.664,0,0,1-.665.664Zm1.6-1.328h1.031v-1.031Zm10.519-2.74-1.759-.97a.664.664,0,0,1-.261-.9.665.665,0,0,1,.9-.261l1.759.969a.664.664,0,0,1,.261.9.664.664,0,0,1-.582.345A.673.673,0,0,1-822.532-4238.917Zm-2.77-4.214-3.519-1.938a.662.662,0,0,1-.344-.581v-2.807a.663.663,0,0,1,.326-.571.661.661,0,0,1,.659-.01l3.52,1.937a.665.665,0,0,1,.343.583v2.806a.66.66,0,0,1-.327.571.656.656,0,0,1-.337.093A.657.657,0,0,1-825.3-4243.131Zm-2.534-2.911,2.191,1.207v-1.292l-2.191-1.206Zm16.076-14.291-.033-.02a.666.666,0,0,1-.217-.915.664.664,0,0,1,.913-.216l.033.02a.663.663,0,0,1,.217.913.662.662,0,0,1-.566.317A.664.664,0,0,1-811.761-4260.333Z" transform="translate(1272 8043)" fill="#fff"/>
  </g>
</svg>
