<svg xmlns="http://www.w3.org/2000/svg" xmlns:xlink="http://www.w3.org/1999/xlink" width="50" height="50" viewBox="0 0 50 50">
  <defs>
    <linearGradient id="linear-gradient" y1="0.5" x2="1" y2="0.5" gradientUnits="objectBoundingBox">
      <stop offset="0" stop-color="#ee2c72"/>
      <stop offset="1" stop-color="#6d2c88"/>
    </linearGradient>
  </defs>
  <g id="slug1" transform="translate(-684 -3771)">
    <circle id="Ellipse_1108" data-name="Ellipse 1108" cx="25" cy="25" r="25" transform="translate(684 3771)" fill="url(#linear-gradient)"/>
    <path id="Union_7" data-name="Union 7" d="M-1138.086-4230a.709.709,0,0,1-.709-.708.709.709,0,0,1,.709-.71h.264a16.772,16.772,0,0,1-1.681-.849,16.889,16.889,0,0,1-7.906-10.335,16.9,16.9,0,0,1,1.68-12.9,17.088,17.088,0,0,1,14.776-8.494,16.933,16.933,0,0,1,8.457,2.267,16.89,16.89,0,0,1,7.905,10.335,16.9,16.9,0,0,1-1.68,12.9,16.986,16.986,0,0,1-7.958,7.075h.316a.709.709,0,0,1,.708.71.708.708,0,0,1-.708.708Zm-6.416-24.8a15.615,15.615,0,0,0,5.707,21.3,15.509,15.509,0,0,0,7.748,2.076,15.667,15.667,0,0,0,13.549-7.784,15.489,15.489,0,0,0,1.538-11.828,15.482,15.482,0,0,0-7.245-9.475,15.506,15.506,0,0,0-7.748-2.077A15.668,15.668,0,0,0-1144.5-4254.8Zm13.03,21.967c-.2-.007-.4-.018-.589-.032a.709.709,0,0,1-.653-.76.709.709,0,0,1,.76-.653c.174.013.352.023.53.028a.709.709,0,0,1,.684.732.709.709,0,0,1-.708.687Zm-3.2-.476a14.214,14.214,0,0,1-10.022-10.024.709.709,0,0,1,.5-.868.708.708,0,0,1,.868.5,12.8,12.8,0,0,0,9.02,9.023.707.707,0,0,1,.5.868.708.708,0,0,1-.684.525A.665.665,0,0,1-1134.668-4233.307Zm2.706-7.081a3.561,3.561,0,0,1-1.966-.535.708.708,0,0,1-.686.535h-4.5a.709.709,0,0,1-.708-.709v-9.217a.709.709,0,0,1,.708-.71h4.5a.71.71,0,0,1,.68.511c.708-.637,1.4-2.065,1.638-4.615a1.469,1.469,0,0,1,1.451-1.32,1.159,1.159,0,0,1,.136.007,3.672,3.672,0,0,1,2.779,1.324c.819,1.128.617,2.655.313,4.092h3.782a1.6,1.6,0,0,1,1.245.518,1.827,1.827,0,0,1,.4,1.446l-.82,7.28a1.5,1.5,0,0,1-1.465,1.392Zm1.077-14.606a10.032,10.032,0,0,1-1.455,4.791,3.611,3.611,0,0,1-1.564,1.326v5.092a1.78,1.78,0,0,0,1.943,1.979h7.491a.209.209,0,0,0,.054-.132l.819-7.28a.51.51,0,0,0-.048-.344.291.291,0,0,0-.188-.043h-4.664a.709.709,0,0,1-.553-.266.709.709,0,0,1-.138-.6l.05-.224c.295-1.318.629-2.811.064-3.59a2.369,2.369,0,0,0-1.765-.747h0A.041.041,0,0,0-1130.885-4254.994Zm-7.523,13.188h3.086v-7.8h-3.086v1.417h1.543a.709.709,0,0,1,.709.71.708.708,0,0,1-.709.708h-1.543Zm19.729-8.5a12.8,12.8,0,0,0-9.02-9.022.708.708,0,0,1-.5-.867.708.708,0,0,1,.868-.5,14.212,14.212,0,0,1,10.022,10.024.71.71,0,0,1-.5.869.721.721,0,0,1-.184.024A.709.709,0,0,1-1118.679-4250.3Zm-11.367-9.421c-.176-.013-.355-.022-.531-.029a.708.708,0,0,1-.684-.732.706.706,0,0,1,.732-.684c.2.006.393.018.588.032a.71.71,0,0,1,.655.76.709.709,0,0,1-.706.656A.5.5,0,0,1-1130.045-4259.724Z" transform="translate(1840 8043)" fill="#fff"/>
  </g>
</svg>
