<svg xmlns="http://www.w3.org/2000/svg" width="24" height="24" viewBox="0 0 24 24">
                            <path d="M22.423,21.478a2.771,2.771,0,1,1-1.206.259,2.826,2.826,0,0,1,1.135-.259Zm-12.45-3.7L5.124,4.851H3.918s-.7-.112-.873-.621a.963.963,0,0,1,.7-1.21A.933.933,0,0,1,3.918,3H5.765l.086,0a.957.957,0,0,1,.169.032.975.975,0,0,1,.61.563l5.316,14.181H23.453l1.54-9.238H11.306l-.088,0a.983.983,0,0,1-.173-.033A.959.959,0,0,1,10.882,6.8a1.037,1.037,0,0,1,.424-.1H26.082a.967.967,0,0,1,.911,1.076L25.146,18.859a.976.976,0,0,1-.911.772H11.306c-.62,0-1.24,0-1.859,0a.96.96,0,0,0-.666,1.552.939.939,0,0,0,.68.3h7.386a.963.963,0,0,1,.878,1.21.943.943,0,0,1-.762.631.956.956,0,0,1-.115.007H13.914a2.479,2.479,0,0,1,.118.435,2.858,2.858,0,0,1-1.68,3.055,2.867,2.867,0,0,1-3.544-1.365,2.786,2.786,0,0,1-.036-2.224,2.884,2.884,0,0,1-2.082-2.535,2.851,2.851,0,0,1,2.765-2.908h.517Zm1.321,5.543a.923.923,0,1,0,.926,1.054A.94.94,0,0,0,11.294,23.326Zm11.082,0A.924.924,0,1,0,23.3,24.38.941.941,0,0,0,22.376,23.326Zm-3.682-9.238H15a.924.924,0,1,1,0-1.848h3.731a.924.924,0,0,1-.037,1.847Z" transform="translate(-3 -3.003)"></path>
                        </svg>