<svg xmlns="http://www.w3.org/2000/svg" width="24" height="24" viewBox="0 0 24 24">
                            <path id="Path_18165" data-name="Path 18165" d="M16.478,17.856a8.239,8.239,0,0,1-2.71,1.474,8.431,8.431,0,0,1-9.329-3.273,8.627,8.627,0,0,1-.387-8.9,8.441,8.441,0,0,1,3-3.1.978.978,0,0,1,1.453.56,1.06,1.06,0,0,1-.573,1.087,6.694,6.694,0,0,0-3.1,5.888,6.655,6.655,0,0,0,6.2,6.237,6.593,6.593,0,0,0,6.03-3.57,6.739,6.739,0,0,0-.327-6.507,6.542,6.542,0,0,0-3.747-2.775s-.584-.231-.685-.715a.97.97,0,0,1,.786-1.12.7.7,0,0,1,.217,0A5.292,5.292,0,0,1,14.7,3.62a8.623,8.623,0,0,1,4.617,9.934,8.368,8.368,0,0,1-1.529,2.98L19.139,17.9a2.754,2.754,0,0,1,1.155-.281h.066a2.807,2.807,0,0,1,1.914.807q1.977,1.986,3.942,3.984a2.9,2.9,0,0,1,.432,3.363,2.84,2.84,0,0,1-4.354.6q-1.977-1.986-3.942-3.984a2.9,2.9,0,0,1-.529-3.177l-1.346-1.361Zm3.838,1.635a.971.971,0,0,0-.846,1.287.93.93,0,0,0,.2.3q1.954,1.987,3.919,3.963A.93.93,0,0,0,24.9,23.731c-1.3-1.335-2.616-2.644-3.924-3.967a.893.893,0,0,0-.665-.274Z" transform="translate(-3 -3.139)"></path>
                        </svg>