<svg xmlns="http://www.w3.org/2000/svg" xmlns:xlink="http://www.w3.org/1999/xlink" width="79" height="85" viewBox="0 0 79 85">
  <defs>
    <linearGradient id="linear-gradient" x1="1" y1="0.5" x2="0" y2="0.5" gradientUnits="objectBoundingBox">
      <stop offset="0" stop-color="#6d2c88"/>
      <stop offset="1" stop-color="#ee2c72"/>
    </linearGradient>
  </defs>
  <g id="logo" transform="translate(-590 -65)">
    <path id="Union_4" data-name="Union 4" d="M37.917,18.3H36.146a3.706,3.706,0,0,1-3.233-1.843,1.1,1.1,0,0,1-.1-.205l-1.1-3.533H26.1l-1.113,3.528a2.551,2.551,0,0,0-.137.738c0,.54.581.814,1.725.814H26.7v.5H22.149v-.5h.121a2.169,2.169,0,0,0,2.25-1.724L28.644,2.861l-.2-.657a2.194,2.194,0,0,0-2.25-1.7h-.122V0H31.1c.888.049,1.4.661,1.821,2.026l4.112,13.2c.213.606.651,1.771.709,1.889.325.653.689.685,1.791.685h.121v.5Zm-11.68-6.091h5.321L28.912,3.678ZM5.484,18.3a4.134,4.134,0,0,1-1.738-.356,3.7,3.7,0,0,1-1.769-3.009V2.179C1.977,1.045,1.37.507.122.507H0V0H8.146V.507H8.025c-1.249,0-1.855.538-1.855,1.672V15.611c0,1.134.607,1.685,1.855,1.685h.121V18.3Zm35.093,0a2.06,2.06,0,0,1-1.1-1.01,2.568,2.568,0,0,1,.113-2.074L45.929,2.055a2.046,2.046,0,0,0,.246-.826c0-.462-.547-.7-1.628-.7H42.518c-1.9,0-2.9,1.176-3.046,3.6l-.007.114h-.494V0H53V.532h-.121a1.922,1.922,0,0,0-1.451.493,5.029,5.029,0,0,0-.761,1.245L43.9,16.262a1.86,1.86,0,0,0-.219.791c0,.485.538.731,1.6.731h4.208c1.9,0,2.893-1.178,3.046-3.6l.007-.114h.489V18.3Zm-22.844,0c-1.334,0-2.256-1.13-2.8-2.854L10.781,2.2A2.114,2.114,0,0,0,8.564.507H8.442V0h5.427a.79.79,0,0,1,.7.374,7.141,7.141,0,0,1,.634,1.662l3.9,12.6L23.035,2.062a5.1,5.1,0,0,0,.083-.739c0-.2,0-.816-1.644-.816h-.122V0h4.394V.507h-.121a2.132,2.132,0,0,0-2.216,1.7l-3.99,13.1-.912,3Z" transform="translate(603.89 131.696)" fill="#6d2c88"/>
    <path id="Union_5" data-name="Union 5" d="M72.224,83a32.642,32.642,0,0,0-65.262.07,1.472,1.472,0,0,1-2.853.452A38.879,38.879,0,0,1,5.164,49.864C2.7,45.457-.42,38.351.047,31.133c.3-4.582,1.973-7.909,4.983-9.886,4.222-2.777,9.8-1.868,12.441-1.2a10.643,10.643,0,0,1,3.01-4.829c7.225-6.328,14.946-3.208,19.02.05a16.341,16.341,0,0,1,9.9-3.713,13.6,13.6,0,0,1,9.122,3.663,10.636,10.636,0,0,1,3.01,4.829c2.64-.668,8.219-1.577,12.441,1.2,3.009,1.976,4.685,5.3,4.982,9.886.463,7.128-2.569,14.147-5.023,18.564a38.86,38.86,0,0,1,1.1,33.934,1.422,1.422,0,0,1-1.321.862A1.472,1.472,0,0,1,72.224,83ZM6.9,55.339C2.6,60.751,3.514,72.6,4.787,76.509A35.695,35.695,0,0,1,21.834,53.051c-.874-.158-1.742-.338-2.607-.522a25.774,25.774,0,0,0-5.238-.749A8.477,8.477,0,0,0,6.9,55.339Zm63.88-.131c-.776,3.511-1.6,7.421.758,13A35.417,35.417,0,0,1,74.4,76.5a36.006,36.006,0,0,0-2.9-25.125A33.53,33.53,0,0,1,70.783,55.207Zm-10.4-11.186c.637,4.094,1.431,9.207,6.607,16.958a28.868,28.868,0,0,1,.922-6.422c1.755-7.765-.245-10.37-6.231-15.053a34.14,34.14,0,0,0-3.02-2.124A22.3,22.3,0,0,1,60.384,44.021Zm-.1,10.913c-2.017-4.671-1.657-7.5-6.191-11-4.862-3.756-9.683-2.4-13.543,2.057-.662.762-1.349,1.553-2.166,2.328Q39,48.3,39.6,48.3A35.38,35.38,0,0,1,60.288,54.934ZM23.2,46.286a21.459,21.459,0,0,1-2.984,3.452,24.652,24.652,0,0,0,5.074.57c4.982,0,9.265-1.875,13.047-6.242a19.932,19.932,0,0,1,2.973-2.973,34.419,34.419,0,0,1-7.345-.531c-.248-.01-.49-.015-.726-.015C27.506,40.547,25.259,43.532,23.2,46.286ZM18.985,38.4A36.918,36.918,0,0,0,8.447,49.977a8.836,8.836,0,0,1,5.3-1.18c2.081.085,3.768.168,7.1-4.273,1.845-2.46,3.813-5.073,7.589-6.265-1.131-.576-2.246-2-4.319-2C22.845,36.26,21.208,36.8,18.985,38.4ZM7.6,25.195c-1.7,1.121-2.66,3.223-2.857,6.245C4.428,36.353,6.2,41.386,8.039,45.178a38.921,38.921,0,0,1,9.442-9.3,44.5,44.5,0,0,1-.867-11.186,17.561,17.561,0,0,0-4.471-.625A8.274,8.274,0,0,0,7.6,25.195Zm54.786-.5a44.307,44.307,0,0,1-.851,11.075c.663.455,1.316.924,1.953,1.423a38.875,38.875,0,0,1,7.544,7.84c1.813-3.775,3.535-8.739,3.221-13.588-.2-3.022-1.157-5.124-2.857-6.245a8.269,8.269,0,0,0-4.538-1.129A17.567,17.567,0,0,0,62.389,24.691Zm-5.2,17.96c-1.692-9.309-9.3-10.769-17.6-10.767a35.758,35.758,0,0,0-11.8,2c3.929,3.962,8.4,4.277,12.869,4.277.416,0,.832,0,1.249-.005.437,0,.873-.005,1.309-.005C48.1,38.15,52.9,38.466,57.187,42.651ZM23.581,18.766c-2.667,2.337-2.817,8.065-1.772,14.5a38.663,38.663,0,0,1,15-4.22V19.163a11.6,11.6,0,0,0-7.113-2.895A9.128,9.128,0,0,0,23.581,18.766Zm17.935,1.009V29A38.771,38.771,0,0,1,57.2,33.187c1.03-6.405.871-12.093-1.786-14.421a9.122,9.122,0,0,0-6.112-2.5C45.22,16.268,42.031,19.263,41.516,19.775Zm-2.6-6.593a.577.577,0,0,1,.15-.382V10.76h-1.8a.561.561,0,0,1-.38.151.577.577,0,0,1,0-1.155.561.561,0,0,1,.38.152h1.8V7.579a1.052,1.052,0,0,1-.625-.959,1.034,1.034,0,0,1,.478-.859,2.905,2.905,0,1,1,1.145,0,1.034,1.034,0,0,1,.48.859,1.051,1.051,0,0,1-.627.959v2.33h1.8a.56.56,0,0,1,.38-.152.577.577,0,0,1,0,1.155.559.559,0,0,1-.38-.151h-1.8V12.8a.563.563,0,0,1,.151.382.576.576,0,0,1-1.152,0Z" transform="translate(590 65)" fill="url(#linear-gradient)"/>
  </g>
</svg>
